<svg width="152" height="152" viewBox="0 0 152 152" fill="none" xmlns="http://www.w3.org/2000/svg">
<path d="M138 115.5C138 124.566 131.642 133.15 120.545 139.579C109.5 145.978 94.1088 150 77 150C59.8912 150 44.5001 145.978 33.4549 139.579C22.3582 133.15 16 124.566 16 115.5C16 106.434 22.3582 97.8502 33.4549 91.4211C44.5001 85.022 59.8912 81 77 81C94.1088 81 109.5 85.022 120.545 91.4211C131.642 97.8502 138 106.434 138 115.5Z" stroke="#A1FF92" stroke-width="4"/>
<path d="M138 35.5C138 44.2614 131.677 52.5988 120.566 58.8599C109.517 65.086 94.118 69 77 69C59.882 69 44.4832 65.086 33.4341 58.8599C22.323 52.5988 16 44.2614 16 35.5C16 26.7386 22.323 18.4012 33.4341 12.1401C44.4832 5.91402 59.882 2 77 2C94.118 2 109.517 5.91402 120.566 12.1401C131.677 18.4012 138 26.7386 138 35.5Z" stroke="#A1FF92" stroke-width="4"/>
<path d="M150 75C150 92.9083 145.432 109.027 138.152 120.604C130.855 132.209 121.027 139 110.5 139C99.9726 139 90.1449 132.209 82.8482 120.604C75.5682 109.027 71 92.9083 71 75C71 57.0917 75.5682 40.9734 82.8482 29.3956C90.1449 17.7911 99.9726 11 110.5 11C121.027 11 130.855 17.7911 138.152 29.3956C145.432 40.9734 150 57.0917 150 75Z" stroke="#A1FF92" stroke-width="4"/>
<path d="M83 75C83 92.8993 78.3243 109.011 70.8705 120.586C63.4032 132.183 53.3264 139 42.5 139C31.6736 139 21.5968 132.183 14.1295 120.586C6.67568 109.011 2 92.8993 2 75C2 57.1007 6.67568 40.9891 14.1295 29.4138C21.5968 17.8174 31.6736 11 42.5 11C53.3264 11 63.4032 17.8174 70.8705 29.4138C78.3243 40.9891 83 57.1007 83 75Z" stroke="#A1FF92" stroke-width="4"/>
<path d="M3 75L149 75" stroke="#A1FF92" stroke-width="4"/>
</svg>
